<?xml version="1.0" standalone="no"?><!DOCTYPE svg PUBLIC "-//W3C//DTD SVG 1.1//EN" "http://www.w3.org/Graphics/SVG/1.1/DTD/svg11.dtd"><svg t="1547431327652" class="icon" style="" viewBox="0 0 1024 1024" version="1.1" xmlns="http://www.w3.org/2000/svg" p-id="2400" xmlns:xlink="http://www.w3.org/1999/xlink" width="40" height="40"><defs><style type="text/css"></style></defs><path d="M511.976 64C264.57 64 64 264.596 64 512c0 247.43 200.57 448 447.976 448C759.406 960 960 759.43 960 512 960 264.596 759.406 64 511.976 64zM783.522 783.53c-20.198 20.196-42.252 37.856-65.772 52.84l-31.892-55.24-27.712 16 31.91 55.272c-49.676 26.06-104.744 40.91-162.054 43.248L528.002 832l-32 0 0 63.65c-57.312-2.332-112.382-17.18-162.06-43.24l31.916-55.282-27.712-16-31.898 55.25c-23.522-14.984-45.58-32.648-65.778-52.848-20.198-20.198-37.86-42.254-52.844-65.778l55.248-31.898-16-27.71L171.592 690.06c-26.06-49.678-40.908-104.748-43.242-162.06L192 528l0-32L128.35 496c2.334-57.31 17.184-112.38 43.246-162.058l55.276 31.916 16-27.712-55.246-31.896c14.984-23.52 32.644-45.574 52.838-65.77 20.2-20.202 42.258-37.866 65.78-52.852l31.898 55.248 27.712-16-31.916-55.28C383.62 145.53 438.69 130.68 496 128.35L496 192l32 0L528 128.352c57.308 2.338 112.376 17.19 162.052 43.252l-31.908 55.268 27.712 16 31.89-55.236c23.52 14.984 45.574 32.646 65.772 52.842 20.2 20.198 37.862 42.252 52.848 65.774l-55.238 31.892 16 27.712 55.272-31.912c26.062 49.678 40.914 104.746 43.248 162.054L832 495.998l0 32 63.648 0c-2.334 57.31-17.184 112.378-43.244 162.056l-55.274-31.914-16 27.712 55.242 31.894C821.386 741.274 803.722 763.33 783.522 783.53z" p-id="2401" fill="#4285f4"></path><path d="M800 482 568.536 482c-5.636-10.598-14.166-19.416-24.536-25.416L544 320l-64 0 0 136.584c-19.124 11.068-32 31.732-32 55.416 0 35.346 28.654 64 64 64 22.85 0 42.888-11.984 54.212-30L800 546 800 482z" p-id="2402" fill="#4285f4"></path></svg>