<?xml version="1.0" standalone="no"?><!DOCTYPE svg PUBLIC "-//W3C//DTD SVG 1.1//EN" "http://www.w3.org/Graphics/SVG/1.1/DTD/svg11.dtd"><svg t="1547169614359" class="icon" style="" viewBox="0 0 1106 1024" version="1.1" xmlns="http://www.w3.org/2000/svg" p-id="8555" xmlns:xlink="http://www.w3.org/1999/xlink" width="17.28125" height="16"><defs><style type="text/css"></style></defs><path d="M1059.077734 832.286693c0 37.506192-31.56996 60.711462-60.711463 60.711462-11.467721 0-22.26087-3.237945-32.244532-9.578919-0.674572-0.404743-1.484058-0.809486-2.293544-1.214229L492.032675 650.691963V262.273518l470.851119-203.990514c1.079315-0.539657 2.15863-1.079315 3.237945-1.753887 9.983663-6.340975 20.776812-9.57892 32.244532-9.578919 29.276416 0 60.711462 23.20527 60.711463 60.711462v724.625033z m-752.552306 83.646904c0 33.458762-27.252701 60.576548-60.576548 60.576548s-60.576548-27.117787-60.576548-60.576548V688.063241h121.153096v227.870356zM46.140711 581.480896V330.675099c0-33.323847 27.117787-60.576548 60.576549-60.576548h339.174703v371.823979H106.71726c-33.458762 0-60.576548-27.117787-60.576549-60.441634zM998.366271 0.944401c-19.427668 0-38.585507 5.396574-55.449802 15.78498L464.240316 223.957839h-357.523056C47.894598 223.957839 0 271.852437 0 330.675099V581.480896c0 58.822661 47.894598 106.71726 106.71726 106.717259h32.649275v227.735442c0 58.822661 47.894598 106.71726 106.717259 106.717259 58.822661 0 106.71726-47.894598 106.71726-106.717259V688.063241h110.899605l478.811067 234.885903c16.999209 10.52332 36.426877 16.054809 55.98946 16.054809 58.957576 0 106.852174-47.894598 106.852174-106.852174v-724.490119C1105.218445 48.838999 1057.188933 0.944401 998.366271 0.944401z" fill="" p-id="8556"></path></svg>