<?xml version="1.0" standalone="no"?><!DOCTYPE svg PUBLIC "-//W3C//DTD SVG 1.1//EN" "http://www.w3.org/Graphics/SVG/1.1/DTD/svg11.dtd"><svg t="1551598409561" class="icon" style="" viewBox="0 0 1024 1024" version="1.1" xmlns="http://www.w3.org/2000/svg" p-id="4616" xmlns:xlink="http://www.w3.org/1999/xlink" width="13" height="13"><defs><style type="text/css"></style></defs><path d="M355.312 284.743c-7.85 14.638-19.663 24.143-32.103 25.44L138.393 336.99c-71.235 11.853-99.348 100.666-48.545 153.52L222.742 624.31c10.696 11.132 15.77 26.138 13.153 39.735L203.72 853.723c-11.405 74.115 62.66 130.251 125.444 94.62l164.348-88.809c13.326-7.685 26.863-7.685 39.657-0.304l165.262 89.333c62.405 35.411 136.467-20.725 125.124-94.49l-32.148-189.54c-1.365-14.82 3.432-30.204 13.317-40.483l132.393-133.286c51.053-53.11 22.94-141.921-47.87-153.706l-184.413-26.771c-14.672-3.095-27.39-12.6-32.615-24.837l-81.611-174.31c-31.227-67.913-122.773-67.913-154.07 0.145l-81.225 173.458z m0 0" p-id="4617" fill="#FFD048"></path></svg>