<?xml version="1.0" standalone="no"?><!DOCTYPE svg PUBLIC "-//W3C//DTD SVG 1.1//EN" "http://www.w3.org/Graphics/SVG/1.1/DTD/svg11.dtd"><svg t="1551598421852" class="icon" style="" viewBox="0 0 1024 1024" version="1.1" xmlns="http://www.w3.org/2000/svg" p-id="4878" xmlns:xlink="http://www.w3.org/1999/xlink" width="13" height="13"><defs><style type="text/css"></style></defs><path d="M288.256 989.696c-22.528 0-44.544-6.656-64.512-20.48-38.4-26.624-57.856-72.704-50.688-120.32v-0.512l32.256-189.44c1.024-4.096-1.024-9.216-5.12-13.312l-133.12-133.632C35.84 478.72 25.088 431.104 39.424 387.584c14.336-43.008 49.152-73.216 93.696-80.896h0.512l185.344-26.624c1.536 0 5.12-2.56 8.192-8.704l80.896-173.056c19.456-42.496 59.392-68.608 104.96-68.608 45.056 0 85.504 26.624 104.96 69.12l81.408 174.08c1.536 3.072 5.12 6.656 10.24 7.68l183.808 26.624c44.032 7.168 78.848 37.376 93.184 80.384 14.336 43.52 3.584 91.648-28.672 124.928l-0.512 0.512-131.072 132.096c-3.584 3.584-5.12 9.728-5.12 15.36l32.256 188.416c7.68 48.128-11.776 94.208-50.176 120.832-35.84 25.088-81.92 27.136-119.808 5.632l-165.376-89.088c-3.584-2.048-5.12-2.56-9.728 0l-1.024 0.512L343.04 975.36c-16.896 9.728-35.84 14.336-54.784 14.336z m225.792-166.4c11.776 0 23.04 3.072 34.304 9.216l165.376 89.088c25.088 14.336 46.592 3.072 54.784-2.56 14.848-10.24 29.184-31.744 24.576-60.416l-32.256-190.976c-2.56-23.552 5.632-48.128 21.504-64.512l0.512-0.512 132.608-133.12c16.384-16.896 21.504-40.448 14.336-62.464-7.168-20.992-23.552-35.328-44.544-38.912l-185.856-27.136c-24.064-5.12-44.544-20.992-54.272-42.496l-81.408-174.08c-9.728-20.992-28.16-33.28-49.152-33.28s-39.424 12.288-49.152 33.28l-81.92 175.104c-12.288 23.552-32.256 38.912-55.296 41.984l-184.32 26.624c-21.504 3.584-38.4 18.432-45.056 39.424-7.168 22.016-2.048 45.568 13.824 62.464l133.12 133.632c17.408 18.432 25.6 43.52 21.504 66.56l-32.256 188.928c-4.096 28.672 10.24 50.176 25.088 60.416 16.896 11.776 36.864 12.8 55.296 2.56h0.512l163.84-88.576c10.24-7.168 22.016-10.24 34.304-10.24z" p-id="4879" fill="#FFD048"></path></svg>